<svg xmlns="http://www.w3.org/2000/svg" version="1.1" viewBox="-5.0 -10.0 110.0 135.0">
 <path d="m94.91 74.301-4.5391-9.6602 2.1094-12.371c0.019531-0.11719 0.019531-0.24219 0-0.35938 0-0.12891-2.3906-14-2.9414-18.711-0.39062-3.4297-1.7617-4.9219-2.8398-5.5781-1.2539-0.73047-2.7773-0.81641-4.1094-0.24219-1.4023 0.67969-2.3281 2.0664-2.418 3.6211-3.1719-4.2305-9.5703-12.09-13.172-12.699-1.4414-0.375-2.9727-0.046875-4.1289 0.89062-0.38672 0.38281-0.68359 0.84766-0.87109 1.3594-0.99219-0.61719-2.2109-0.73047-3.3008-0.3125-1.4258 0.46094-2.543 1.5781-3 3-0.25781 1.25-0.050781 2.5469 0.58203 3.6523-1.2422 0.52344-2.2109 1.543-2.6719 2.8086-0.49609 1.7773-0.28125 3.6797 0.60156 5.3008-1.4922 0.9375-2.4102 2.5586-2.4492 4.3203-0.37109 3.6992 6 12.621 7.4883 14.73-0.19141 1.6602-0.55078 7.5 2.8789 11.441 3.2383 3.7188 8.5312 7 10.129 7.8789l1.0898 7.5508h0.003906c0.042969 0.30078 0.21484 0.57031 0.46875 0.73828 0.26172 0.17188 0.58594 0.21094 0.87891 0.10938l19.559-6h0.003907c0.28906-0.09375 0.52344-0.30859 0.64844-0.58984 0.12109-0.28125 0.12109-0.59766 0-0.87891zm-30-27.52c-0.17969 0.16016-0.41797 0.25-0.66016 0.23828-0.31641 0-0.61328-0.14453-0.80859-0.39062l-8.5117-10.43c-0.19141-0.21094-0.28125-0.49219-0.25391-0.77344 0.027344-0.28125 0.17578-0.53906 0.40234-0.70703 0.46094-0.35938 1.1211-0.28906 1.4922 0.16016l8.4297 10.43c0.19141 0.20703 0.28516 0.48438 0.25781 0.76562-0.023437 0.27734-0.16406 0.53516-0.38672 0.70703zm4.2305-6c-0.21484 0.18359-0.49219 0.27734-0.77344 0.25781-0.28125-0.023437-0.54297-0.15625-0.72656-0.36719l-10.641-12.523c-0.38281-0.44141-0.32812-1.1133 0.11328-1.4922 0.44531-0.38281 1.1172-0.33203 1.4961 0.11328l10.609 12.512c0.37891 0.44531 0.32422 1.1094-0.11719 1.4883zm5.1016-3-12.32-14.781c-0.19922-0.21484-0.30078-0.5-0.28516-0.78906 0.019531-0.29297 0.16016-0.5625 0.38281-0.75 0.22656-0.1875 0.51562-0.26953 0.80469-0.23438 0.28906 0.035157 0.55469 0.1875 0.72656 0.42188l12.289 14.801c0.19141 0.22266 0.28516 0.51172 0.26172 0.80469-0.027343 0.29297-0.17187 0.5625-0.40234 0.74609-0.19531 0.15234-0.43359 0.23438-0.67969 0.23828-0.32422-0.015625-0.62109-0.17188-0.82031-0.42969zm8 8.1602h-0.003907c0.007813 0.35156-0.16797 0.68359-0.46875 0.86719 0 0-4.6094 3.1914-4.6094 7.3828-0.054687 0.54297-0.50781 0.95703-1.0547 0.95703s-1.0039-0.41406-1.0547-0.95703c0-4.4805 3.6992-7.7305 5-8.7617v-11.371c0.050781-0.54297 0.50781-0.95703 1.0547-0.95703s1 0.41406 1.0547 0.95703zm-36.453-10.941c0.89844-1.5938 1.1445-3.4688 0.69141-5.2383-0.46094-1.2695-1.4297-2.2852-2.6719-2.8125 0.63281-1.1055 0.83984-2.4023 0.58203-3.6484-0.45703-1.4258-1.5742-2.543-3-3-1.0898-0.42188-2.3086-0.30469-3.3008 0.30859-0.1875-0.51172-0.48828-0.97656-0.87891-1.3594-1.168-0.98047-2.7383-1.3359-4.2109-0.94922-3.6016 0.60938-10 8.4688-13.172 12.699-0.097656-1.5469-1.0234-2.9219-2.418-3.6016-1.332-0.57422-2.8555-0.48438-4.1094 0.24219-1.0781 0.66016-2.4492 2.1484-2.8398 5.5781-0.55078 4.6992-2.9219 18.578-2.9414 18.711-0.019531 0.12109-0.019531 0.24219 0 0.35937l2.1094 12.352-4.5391 9.6602c-0.12109 0.27734-0.12109 0.58984 0 0.87109 0.125 0.27734 0.35938 0.49219 0.64844 0.58984l19.559 6h0.003906c0.29297 0.10156 0.61719 0.058593 0.87891-0.11328 0.25391-0.16797 0.42578-0.4375 0.46875-0.73828l1.0898-7.5508c1.6016-0.92969 6.8906-4.1602 10.129-7.8789 3.4297-3.9414 3.0703-9.7812 2.8789-11.441 1.5391-2.1094 7.8594-11 7.4883-14.73h0.003906c-0.039062-1.7539-0.96094-3.375-2.4492-4.3086zm-21.891 20.262c-0.58203-0.007813-1.0547-0.48047-1.0586-1.0625 0-4.2109-4.5312-7.3203-4.5703-7.3516v0.003906c-0.29297-0.18359-0.46875-0.50781-0.46875-0.85156v-11.922c-0.03125-0.29688 0.066407-0.58984 0.26953-0.8125 0.19922-0.22266 0.48438-0.34766 0.78516-0.34766 0.29688 0 0.58203 0.125 0.78516 0.34766 0.19922 0.22266 0.29688 0.51562 0.26953 0.8125v11.371c1.3398 1 5 4.2695 5 8.75-0.003906 0.56641-0.44531 1.0273-1.0117 1.0625zm1.8984-17.449 0.003906-0.003906c-0.20703 0.23828-0.50781 0.375-0.82031 0.38281-0.41406 0-0.78906-0.23438-0.96484-0.60938s-0.12109-0.81641 0.14453-1.1328l12.289-14.828c0.38281-0.45312 1.0547-0.50781 1.5039-0.125 0.45312 0.37891 0.50781 1.0547 0.125 1.5039zm5.793 3.1875c-0.41016-0.007812-0.78125-0.24609-0.95312-0.62109-0.17578-0.37109-0.11719-0.8125 0.14453-1.1289l10.641-12.48c0.39844-0.34375 0.98828-0.33984 1.3867 0.007813 0.39453 0.34766 0.47656 0.92969 0.19141 1.3711l-10.602 12.512c-0.21094 0.22266-0.50391 0.34375-0.80859 0.33984zm13.48-4.8086-8.4805 10.449c-0.19141 0.25781-0.5 0.40625-0.82031 0.39844-0.23828-0.007812-0.46875-0.089843-0.66016-0.23828-0.22266-0.17578-0.36328-0.43359-0.38281-0.71484-0.019531-0.28516 0.078126-0.5625 0.27344-0.76563l8.4688-10.43c0.37109-0.45312 1.0391-0.51953 1.4922-0.15234 0.22266 0.17578 0.36328 0.43359 0.38281 0.71875 0.019531 0.28125-0.078125 0.55859-0.27344 0.76172z"/>
<text x="0.0" y="117.5" font-size="5.0" font-weight="bold" font-family="Arbeit Regular, Helvetica, Arial-Unicode, Arial, Sans-serif" fill="#000000">Created by Vattie</text><text x="0.0" y="122.5" font-size="5.0" font-weight="bold" font-family="Arbeit Regular, Helvetica, Arial-Unicode, Arial, Sans-serif" fill="#000000">from Noun Project</text></svg>