<svg xmlns="http://www.w3.org/2000/svg" viewBox="0 0 24 24" width="24" height="24" color="currentColor" fill="none">
    <defs />
    <path fill="currentColor" d="M3,5.25 C4.519,5.25 5.75,6.481 5.75,8 L5.75,11.344 C6.75,10.795 8.023,10.912 8.912,11.712 L11.509,14.049 C11.691,14.213 11.855,14.393 12,14.586 C12.145,14.393 12.309,14.213 12.491,14.049 L15.088,11.712 C15.976,10.912 17.25,10.795 18.25,11.344 L18.25,8 C18.25,6.481 19.481,5.25 21,5.25 L22,5.25 C22.414,5.25 22.75,5.586 22.75,6 L22.75,13.327 C22.75,14.27 22.395,15.178 21.756,15.871 L17.442,20.544 C16.732,21.313 15.733,21.75 14.686,21.75 L9.313,21.75 C8.267,21.75 7.268,21.313 6.558,20.544 L2.244,15.871 C1.605,15.178 1.25,14.27 1.25,13.327 L1.25,6 C1.25,5.586 1.586,5.25 2,5.25 Z M12.75,20.25 L14.686,20.25 C15.314,20.25 15.914,19.988 16.34,19.526 L20.653,14.853 C21.037,14.438 21.25,13.893 21.25,13.327 L21.25,6.75 L21,6.75 C20.31,6.75 19.75,7.31 19.75,8 L19.75,13 C19.75,13.199 19.671,13.39 19.53,13.531 L16.53,16.531 C16.237,16.823 15.763,16.823 15.47,16.531 C15.177,16.238 15.177,15.763 15.47,15.47 L17.939,13 L17.811,12.872 C17.341,12.402 16.586,12.382 16.091,12.827 L13.495,15.164 C13.021,15.59 12.75,16.198 12.75,16.836 Z M11.25,20.25 L11.25,16.836 C11.25,16.198 10.979,15.59 10.505,15.164 L7.909,12.827 C7.415,12.382 6.659,12.402 6.189,12.872 L6.061,13 L8.53,15.47 C8.823,15.763 8.823,16.238 8.53,16.531 C8.237,16.823 7.763,16.823 7.47,16.531 L4.47,13.531 C4.329,13.39 4.25,13.199 4.25,13 L4.25,8 C4.25,7.31 3.69,6.75 3,6.75 L2.75,6.75 L2.75,13.327 C2.75,13.893 2.963,14.438 3.347,14.853 L7.66,19.526 C8.086,19.988 8.686,20.25 9.313,20.25 Z M11.208,2.613 C11.422,2.968 11.308,3.429 10.953,3.643 C10.23,4.078 9.75,4.868 9.75,5.769 C9.75,7.139 10.861,8.25 12.231,8.25 C13.132,8.25 13.922,7.77 14.358,7.047 C14.571,6.693 15.032,6.578 15.387,6.792 C15.742,7.006 15.856,7.467 15.642,7.821 C14.947,8.976 13.68,9.75 12.231,9.75 C10.032,9.75 8.25,7.968 8.25,5.769 C8.25,4.32 9.025,3.053 10.179,2.358 C10.533,2.144 10.994,2.258 11.208,2.613 Z M14,3 L14.009,3 C14.561,3 15.009,3.448 15.009,4 C15.009,4.552 14.561,5 14.009,5 L14,5 C13.448,5 13,4.552 13,4 C13,3.448 13.448,3 14,3 Z" />
</svg>