<svg xmlns="http://www.w3.org/2000/svg" viewBox="0 0 24 24" width="24" height="24" color="currentColor" fill="none">
    <defs />
    <path fill="currentColor" d="M19.274,16.314 C19.225,16.13 19.177,15.954 19.131,15.787 C19.007,15.34 18.777,14.934 18.465,14.593 C17.755,16.597 16.343,18.058 15.084,19.031 C14.356,19.594 13.662,20.006 13.149,20.279 C12.893,20.416 12.68,20.518 12.529,20.587 C12.454,20.622 12.394,20.648 12.351,20.666 C12.33,20.675 12.313,20.682 12.301,20.687 L12.286,20.693 L12.282,20.695 L12.28,20.696 L12.279,20.696 C12.279,20.696 12.279,20.696 12.001,20.001 L12.279,20.696 C11.894,20.85 11.458,20.663 11.304,20.278 C11.15,19.894 11.337,19.457 11.722,19.304 L11.728,19.301 L11.762,19.287 C11.793,19.273 11.842,19.252 11.905,19.223 C12.031,19.165 12.217,19.076 12.445,18.955 C12.901,18.712 13.52,18.344 14.167,17.844 C15.369,16.915 16.611,15.577 17.147,13.798 C17.156,13.769 17.165,13.74 17.173,13.711 L15.429,12.818 C13.295,16.88 10.107,17.848 8.284,17.743 C8.202,18.149 8.124,18.599 8.054,19.056 C7.868,20.279 7.75,21.483 7.75,22 C7.75,22.414 7.414,22.75 7,22.75 C6.586,22.75 6.25,22.414 6.25,22 C6.25,21.364 6.382,20.068 6.571,18.83 C6.667,18.203 6.779,17.574 6.902,17.032 C7.02,16.511 7.161,16.003 7.331,15.664 C7.517,15.293 7.967,15.144 8.338,15.33 C8.678,15.5 8.832,15.896 8.71,16.246 C10.011,16.186 12.337,15.4 14.046,12.224 C13.435,12.561 12.737,12.75 12,12.75 C11.22,12.75 10.484,12.538 9.848,12.164 L9.842,12.168 L6.432,13.913 C5.662,14.307 5.093,14.98 4.869,15.787 C4.391,17.515 3.75,20.184 3.75,22 C3.75,22.414 3.414,22.75 3,22.75 C2.586,22.75 2.25,22.414 2.25,22 C2.25,19.954 2.949,17.101 3.424,15.387 C3.767,14.149 4.63,13.15 5.748,12.578 L8.632,11.102 C8.207,10.562 7.902,9.915 7.763,9.202 L7.343,7.047 C7.276,6.703 7.246,6.361 7.25,6.026 C7.249,5.997 7.25,5.969 7.252,5.941 C7.33,3.408 9.36,1.25 12,1.25 C14.635,1.25 16.662,3.4 16.747,5.927 C16.75,5.964 16.751,6.001 16.749,6.039 C16.753,6.37 16.723,6.707 16.657,7.047 L16.236,9.202 C16.097,9.915 15.793,10.562 15.368,11.102 L18.252,12.578 C19.37,13.15 20.233,14.149 20.576,15.387 C21.052,17.101 21.75,19.954 21.75,22 C21.75,22.414 21.414,22.75 21,22.75 C20.586,22.75 20.25,22.414 20.25,22 C20.25,21.193 20.124,20.217 19.941,19.23 C19.823,19.51 19.695,19.784 19.558,20.048 C19.02,21.085 18.31,22.028 17.416,22.624 C17.072,22.854 16.606,22.761 16.376,22.416 C16.146,22.071 16.239,21.606 16.584,21.376 C17.19,20.972 17.753,20.269 18.226,19.357 C18.695,18.454 19.05,17.396 19.265,16.349 C19.268,16.337 19.271,16.325 19.274,16.314 Z M15.218,6.557 L12.765,5.857 C12.262,5.714 11.738,5.714 11.236,5.857 L8.781,6.557 C8.791,6.624 8.802,6.692 8.815,6.759 L9.235,8.915 C9.503,10.285 10.67,11.25 12,11.25 C13.33,11.25 14.497,10.285 14.764,8.915 L15.185,6.759 C15.198,6.692 15.209,6.624 15.218,6.557 Z M8.946,4.951 L10.824,4.415 C11.596,4.195 12.405,4.195 13.176,4.415 L15.054,4.95 C14.601,3.678 13.413,2.75 12,2.75 C10.586,2.75 9.398,3.679 8.946,4.951 Z" />
</svg>