<svg width="375" height="160" viewBox="0 0 375 160" fill="none" xmlns="http://www.w3.org/2000/svg">
<path fill-rule="evenodd" clip-rule="evenodd" d="M387.948 127.288C388.122 126.644 388.24 125.973 388.24 125.264C388.24 122.304 386.599 119.807 384.316 118.853C384.316 118.82 384.323 118.787 384.323 118.753C384.323 117.744 383.764 116.892 382.984 116.566L382.7 115.566C382.753 115.477 382.79 115.373 382.79 115.255C382.79 115.026 382.668 114.833 382.501 114.742L382.323 111.596C382.323 111.582 382.31 111.571 382.299 111.571C382.285 111.571 382.27 111.581 382.27 111.596L382.092 114.742C381.923 114.833 381.8 115.026 381.8 115.255C381.8 115.373 381.839 115.478 381.896 115.569L381.61 116.566C380.829 116.892 380.269 117.742 380.269 118.753C380.269 118.787 380.275 118.82 380.277 118.853C378.498 119.597 377.123 121.28 376.595 123.382V115.439H376.702C376.961 115.439 377.17 115.199 377.17 114.899V114.592C377.17 114.297 376.961 114.053 376.702 114.053H376.065C376.094 113.852 376.112 113.654 376.112 113.441C376.112 111.997 375.445 110.728 374.449 110.021C373.838 109.584 373.308 109.012 372.888 108.344C372.966 108.259 373.015 108.138 373.015 108.005C373.015 107.817 372.917 107.651 372.772 107.582L372.671 105.755H372.552L372.45 107.582C372.306 107.651 372.209 107.817 372.209 108.005C372.209 108.138 372.255 108.259 372.335 108.344C371.919 109.014 371.391 109.583 370.772 110.021C369.776 110.728 369.111 111.997 369.111 113.441C369.111 113.654 369.129 113.852 369.154 114.053H368.54C368.28 114.053 368.069 114.297 368.069 114.592V114.899C368.069 115.199 368.28 115.439 368.54 115.439H368.63V123.012H367.104C367.5 122.16 367.714 121.248 367.714 120.306C367.714 117.017 365.11 114.137 361.208 112.529C358.667 111.479 356.503 110.065 354.817 108.423C354.883 108.278 354.926 108.123 354.926 107.948C354.926 107.519 354.702 107.15 354.377 106.987L354.146 102.838H353.876L353.645 106.987C353.32 107.15 353.092 107.519 353.092 107.948C353.092 108.123 353.139 108.278 353.203 108.423C351.659 109.935 349.73 111.229 347.449 112.25C347.391 111.71 347.269 111.147 347.053 110.582C346.712 109.664 346.021 108.829 345.235 108.072C344.474 107.345 343.619 106.723 342.927 106.265C342.951 106.157 342.997 105.995 342.997 105.834C342.997 105.618 342.975 105.375 342.893 105.133C342.799 104.889 342.599 104.646 342.376 104.458C342.178 104.268 341.955 104.107 341.791 103.998L341.778 103.594C341.826 103.541 341.85 103.513 341.873 103.432C341.92 103.379 341.931 103.297 341.931 103.217C341.931 103.136 341.907 103.054 341.873 102.973C341.839 102.92 341.803 102.865 341.744 102.838L341.733 102.46C341.755 102.434 341.79 102.38 341.803 102.352C341.839 102.298 341.85 102.245 341.85 102.163C341.85 102.109 341.826 102.028 341.803 101.976C341.779 101.92 341.744 101.894 341.71 101.866L341.686 101.462L341.569 98.5484C341.569 98.4954 341.546 98.4673 341.523 98.4673C341.487 98.4949 341.463 98.5217 341.463 98.5484L341.346 101.462L341.335 101.866C341.287 101.894 341.265 101.92 341.241 101.976C341.206 102.028 341.193 102.109 341.193 102.163C341.193 102.245 341.193 102.298 341.228 102.352C341.241 102.38 341.276 102.434 341.311 102.46L341.287 102.838C341.242 102.865 341.193 102.92 341.171 102.973C341.123 103.054 341.1 103.136 341.1 103.217C341.1 103.297 341.124 103.379 341.158 103.432C341.183 103.514 341.217 103.541 341.265 103.594L341.241 103.998C341.076 104.107 340.865 104.268 340.655 104.458C340.443 104.646 340.245 104.889 340.139 105.133C340.057 105.375 340.034 105.617 340.045 105.834C340.045 105.995 340.081 106.157 340.116 106.265C339.412 106.723 338.569 107.345 337.807 108.072C337.415 108.451 337.043 108.848 336.727 109.265C334.459 102.865 329.155 98.2788 322.868 97.8733V97.2197C322.868 96.9834 322.7 96.7905 322.495 96.7905H322.205L321.966 89.9118C322.629 90.1722 323.349 90.2709 324.087 90.1214C325.278 89.8807 326.266 89.1048 326.903 88.0439C326.444 88.3696 325.93 88.6028 325.367 88.7159C323.023 89.1889 320.779 87.3801 320.37 84.6779C320.167 83.3395 320.445 82.0358 321.064 81.0025C319.615 82.0424 318.777 84.0247 319.091 86.0843C319.355 87.8194 320.377 89.1753 321.693 89.8075L321.461 96.791H321.164C321.067 96.791 320.976 96.8343 320.908 96.9124C320.839 96.9908 320.802 97.0978 320.802 97.207V97.8882C314.972 98.3731 310.014 102.454 307.593 108.219L307.543 99.5352H307.75C308.088 99.5352 308.367 99.213 308.367 98.8307C308.367 98.4463 308.088 98.1298 307.75 98.1298H307.543L307.495 88.37H307.75C308.048 88.37 308.299 88.0921 308.299 87.7493C308.299 87.4556 308.122 87.2074 307.887 87.139V84.2172H308.102C308.259 84.2172 308.386 84.0695 308.386 83.8906C308.386 83.7157 308.259 83.5732 308.102 83.5732H307.837C307.994 83.0493 308.181 82.0454 307.793 81.0236C307.612 80.5497 307.24 80.099 306.828 79.7032C306.421 79.32 305.97 78.9925 305.602 78.7554C305.622 78.6883 305.642 78.6089 305.642 78.5125C305.647 78.3941 305.637 78.2692 305.583 78.1469C305.539 78.0106 305.431 77.8865 305.313 77.7852C305.211 77.6892 305.093 77.6103 305.005 77.5542L304.995 77.3337C305.015 77.3113 305.039 77.2828 305.049 77.2543C305.069 77.2153 305.079 77.1767 305.079 77.1368C305.079 77.0904 305.069 77.0404 305.044 77.0067C305.035 76.9725 305.005 76.9496 304.98 76.9273L304.976 76.7357C304.985 76.7177 305.005 76.6958 305.015 76.6669C305.028 76.6454 305.035 76.6108 305.035 76.5775C305.035 76.5437 305.028 76.5043 305.011 76.4766C305 76.4534 304.981 76.431 304.956 76.4078L304.951 76.2044L304.892 74.6595C304.888 74.6372 304.878 74.6262 304.858 74.6262C304.838 74.6262 304.828 74.6424 304.828 74.6595L304.77 76.2044L304.761 76.4078C304.741 76.4315 304.721 76.4534 304.711 76.4766C304.691 76.5043 304.682 76.5437 304.682 76.5775C304.682 76.6108 304.691 76.6454 304.706 76.6669C304.716 76.6958 304.731 76.7177 304.75 76.7357L304.741 76.9273C304.711 76.9496 304.691 76.9725 304.671 77.0067C304.652 77.0404 304.642 77.0899 304.642 77.1368C304.642 77.1767 304.652 77.2153 304.671 77.2543C304.681 77.2824 304.701 77.3113 304.721 77.3337L304.716 77.5542C304.632 77.6103 304.514 77.6897 304.407 77.7852C304.288 77.8865 304.181 78.011 304.132 78.1469C304.083 78.2692 304.074 78.3941 304.078 78.5125C304.083 78.6089 304.098 78.6879 304.113 78.7554C303.75 78.9925 303.299 79.32 302.897 79.7032C302.475 80.0986 302.113 80.5497 301.926 81.0236C301.534 82.0454 301.73 83.0493 301.883 83.5732H301.565C301.416 83.5732 301.29 83.7152 301.29 83.8906C301.29 84.0695 301.416 84.2172 301.565 84.2172H301.799V87.139C301.559 87.2021 301.378 87.4503 301.378 87.7493C301.378 88.0921 301.623 88.37 301.918 88.37H302.182L302.132 98.1298H301.918C301.583 98.1298 301.309 98.4463 301.309 98.8307C301.309 99.213 301.583 99.5352 301.918 99.5352H302.122L302.095 105.207C299.993 100.106 293.721 100.653 291.866 104.347V103.188H291.953C292.178 103.188 292.351 102.988 292.351 102.749C292.351 102.469 292.178 102.269 291.953 102.269H291.729C292.144 101.232 293.132 97.8777 291.831 94.4837C291.328 93.1256 290.306 91.8881 289.142 90.7711C288.014 89.6913 286.749 88.7747 285.726 88.0952C285.761 87.9356 285.83 87.6953 285.83 87.4573C285.83 87.1368 285.795 86.7782 285.675 86.4192C285.535 86.0597 285.239 85.7003 284.91 85.4214C284.616 85.1418 284.287 84.9015 284.043 84.7419L284.026 84.1444C284.097 84.0638 284.13 84.0239 284.165 83.9037C284.235 83.8235 284.252 83.7039 284.252 83.5846C284.252 83.4641 284.217 83.3444 284.165 83.2247C284.114 83.1453 284.061 83.0647 283.975 83.0248L283.957 82.4659C283.991 82.426 284.043 82.347 284.06 82.3063C284.114 82.2261 284.13 82.1471 284.13 82.027C284.13 81.9477 284.096 81.8262 284.06 81.7478C284.026 81.6676 283.974 81.6281 283.923 81.5882L283.887 80.9898L283.714 76.6774C283.714 76.5972 283.68 76.5569 283.645 76.5569C283.593 76.5976 283.557 76.6375 283.557 76.6774L283.384 80.9898L283.367 81.5882C283.296 81.6281 283.264 81.668 283.229 81.7478C283.176 81.8262 283.159 81.9477 283.159 82.027C283.159 82.1467 283.159 82.2261 283.211 82.3063C283.229 82.347 283.281 82.426 283.332 82.4659L283.296 83.0248C283.228 83.0647 283.159 83.1453 283.124 83.2247C283.055 83.3444 283.02 83.4641 283.02 83.5846C283.02 83.7034 283.055 83.8235 283.107 83.9037C283.142 84.0234 283.194 84.0638 283.264 84.1444L283.229 84.7419C282.986 84.9015 282.674 85.1418 282.362 85.4214C282.05 85.7007 281.755 86.0597 281.598 86.4192C281.476 86.7782 281.443 87.1368 281.459 87.4573C281.459 87.6953 281.512 87.9356 281.564 88.0952C280.522 88.7751 279.274 89.6917 278.148 90.7711C276.985 91.8881 275.944 93.1256 275.441 94.4837C274.14 97.8777 275.146 101.232 275.544 102.269H275.337C275.111 102.269 274.937 102.469 274.937 102.749C274.937 102.988 275.111 103.188 275.337 103.188H275.527V104.347H273.656L273.62 83.7832H274.175C274.54 83.7832 274.834 83.4242 274.834 83.0252C274.834 82.5873 274.54 82.2673 274.175 82.2673H273.62L273.568 70.8881H273.76C274.071 70.8881 274.349 70.608 274.349 70.2485C274.349 69.8496 274.072 69.5703 273.76 69.5703H273.549L273.517 60.3471H273.76C274.037 60.3471 274.279 60.0679 274.279 59.7483C274.279 59.4686 274.105 59.2288 273.88 59.1898V56.3947H274.089C274.244 56.3947 274.349 56.2746 274.349 56.1146C274.349 55.9545 274.244 55.7954 274.089 55.7954H273.846C273.984 55.3158 274.174 54.3584 273.794 53.4005C273.62 52.9608 273.273 52.5211 272.892 52.1625C272.509 51.7636 272.076 51.4834 271.729 51.2441C271.747 51.2042 271.764 51.1244 271.764 51.0039C271.764 50.9241 271.747 50.8057 271.711 50.6843C271.659 50.5247 271.573 50.4055 271.452 50.3252C271.348 50.2459 271.243 50.1666 271.156 50.1258V49.8864C271.175 49.8864 271.191 49.847 271.191 49.8062C271.226 49.8062 271.226 49.7663 271.226 49.726C271.226 49.6865 271.226 49.6457 271.191 49.6067C271.191 49.5668 271.156 49.5269 271.123 49.5269V49.3275C271.156 49.3275 271.156 49.288 271.175 49.288C271.191 49.2473 271.191 49.2074 271.191 49.167C271.191 49.167 271.191 49.1276 271.156 49.0868C271.156 49.0478 271.14 49.0478 271.123 49.0478L271.105 48.8479L271.052 47.3705C271.052 47.3705 271.035 47.3306 271.017 47.3306C271 47.3306 270.983 47.3705 270.983 47.3705L270.931 48.8479V49.0478C270.913 49.0478 270.879 49.0478 270.879 49.0868C270.862 49.1276 270.845 49.167 270.845 49.167C270.845 49.2074 270.862 49.2473 270.879 49.288C270.879 49.288 270.896 49.3275 270.913 49.3275V49.5269C270.879 49.5269 270.862 49.5668 270.845 49.6067C270.826 49.6462 270.81 49.6869 270.81 49.726C270.81 49.7663 270.826 49.8062 270.845 49.8062C270.845 49.847 270.879 49.8864 270.896 49.8864L270.879 50.1258C270.81 50.1666 270.705 50.2459 270.601 50.3252C270.479 50.4059 270.393 50.5247 270.323 50.6843C270.288 50.8053 270.288 50.9241 270.288 51.0039C270.288 51.124 270.306 51.2042 270.323 51.2441C269.976 51.4834 269.543 51.7636 269.16 52.1625C268.762 52.5211 268.414 52.9608 268.241 53.4005C267.879 54.3584 268.07 55.3158 268.208 55.7954H267.913C267.756 55.7954 267.652 55.9545 267.652 56.1146C267.652 56.2746 267.756 56.3947 267.913 56.3947H268.121V57.1526C268.121 57.1934 268.121 57.2329 268.102 57.2728L268.121 57.3521V59.1898C267.896 59.2288 267.722 59.4686 267.722 59.7483C267.722 60.0679 267.965 60.3471 268.241 60.3471H268.486L268.45 69.5703H268.241C267.93 69.5703 267.652 69.8496 267.652 70.2485C267.652 70.608 267.93 70.8881 268.241 70.8881H268.432L268.38 82.2673H267.825C267.463 82.2673 267.166 82.5873 267.166 83.0252C267.166 83.4242 267.463 83.7832 267.825 83.7832H268.364L268.346 95.6424H267.357V90.8907H265.102V89.7334H265.189C265.397 89.7334 265.588 89.5326 265.588 89.2928C265.588 89.0144 265.397 88.8145 265.189 88.8145H264.981C265.379 87.7764 266.367 84.4215 265.084 81.0279C264.566 79.6707 263.542 78.4332 262.38 77.3157C261.251 76.2377 259.986 75.318 258.964 74.6398C259.015 74.4794 259.049 74.2409 259.083 73.9608C259.083 73.6815 259.049 73.3229 258.909 72.963C258.772 72.6035 258.477 72.244 258.147 71.9652C257.853 71.6851 257.523 71.4453 257.28 71.2862L257.263 70.6882C257.331 70.6071 257.384 70.5685 257.42 70.4475C257.454 70.3682 257.489 70.2476 257.489 70.1279C257.489 70.0074 257.454 69.8881 257.42 69.7693C257.349 69.6891 257.298 69.6102 257.211 69.5694L257.193 69.0114C257.245 68.9706 257.28 68.8908 257.314 68.8501C257.35 68.7707 257.384 68.6909 257.384 68.5708C257.384 68.4914 257.35 68.3718 257.314 68.2907C257.28 68.2122 257.211 68.1719 257.159 68.1324L257.14 67.5336L256.967 63.2216C256.967 63.1414 256.933 63.102 256.881 63.102C256.828 63.1418 256.795 63.1817 256.795 63.2216L256.621 67.5336L256.604 68.1324C256.55 68.1719 256.499 68.2126 256.464 68.2907C256.412 68.3718 256.394 68.4914 256.394 68.5708C256.394 68.6905 256.412 68.7707 256.447 68.8501C256.483 68.8908 256.517 68.9706 256.569 69.0114L256.55 69.5694C256.483 69.6102 256.412 69.6891 256.36 69.7693C256.308 69.8881 256.274 70.0074 256.274 70.1279C256.274 70.2472 256.308 70.3682 256.342 70.4475C256.378 70.5681 256.447 70.6071 256.517 70.6882L256.483 71.2862C256.239 71.4453 255.926 71.6851 255.614 71.9652C255.301 72.2445 254.99 72.6035 254.852 72.963C254.712 73.3229 254.678 73.6819 254.695 73.9608C254.712 74.2409 254.747 74.4794 254.798 74.6398C253.776 75.318 252.527 76.2377 251.383 77.3157C250.219 78.4332 249.198 79.6707 248.694 81.0279C247.395 84.4215 248.399 87.7764 248.781 88.8145H248.574C248.365 88.8145 248.19 89.0144 248.19 89.2928C248.19 89.5326 248.365 89.7334 248.574 89.7334H248.781V90.8907H246.405V95.6424H244.689V92.0485C244.896 91.8889 245.071 91.6496 245.071 91.3304C245.071 90.8907 244.793 90.4909 244.446 90.4125V85.9791H244.775C244.999 85.9791 245.191 85.7401 245.191 85.5017C245.191 85.2207 244.999 85.0225 244.775 85.0225H244.376C244.603 84.2229 244.896 82.7052 244.305 81.1489C244.028 80.4291 243.473 79.7505 242.849 79.153C242.224 78.5533 241.548 78.0732 240.976 77.7151C241.012 77.6353 241.046 77.4744 241.046 77.3547C241.046 77.1566 241.046 76.9966 240.959 76.7967C240.872 76.5976 240.733 76.3977 240.543 76.2386C240.387 76.1189 240.214 75.958 240.074 75.8791V75.5595C240.11 75.5188 240.143 75.4797 240.143 75.4398C240.178 75.3991 240.195 75.3193 240.195 75.2803C240.195 75.2001 240.178 75.1194 240.143 75.0813C240.11 75.0002 240.074 74.9611 240.04 74.9611V74.6416C240.057 74.6416 240.075 74.6017 240.092 74.5613C240.11 74.5223 240.127 74.4807 240.127 74.4026C240.127 74.3623 240.11 74.3224 240.092 74.283C240.075 74.2426 240.04 74.2019 240.004 74.1628V73.8437L239.902 71.5282C239.902 71.4887 239.884 71.4471 239.866 71.4471C239.833 71.4471 239.814 71.4887 239.814 71.5282L239.727 73.8437L239.71 74.1628C239.675 74.2023 239.659 74.2431 239.624 74.283C239.607 74.3229 239.589 74.3627 239.589 74.4026C239.589 74.4811 239.607 74.5223 239.624 74.5613C239.641 74.6017 239.659 74.6416 239.693 74.6416V74.9611C239.641 74.9611 239.607 75.0006 239.589 75.0813C239.554 75.1194 239.519 75.2001 239.519 75.2803C239.519 75.3193 239.554 75.3991 239.571 75.4398C239.589 75.4802 239.625 75.5192 239.659 75.5595L239.641 75.8791C239.519 75.9585 239.346 76.1189 239.173 76.2386C239.001 76.3977 238.843 76.5976 238.755 76.7967C238.688 76.9966 238.669 77.1965 238.688 77.3547C238.688 77.4744 238.704 77.6357 238.722 77.7151C238.185 78.0732 237.507 78.5533 236.884 79.153C236.258 79.7501 235.703 80.4291 235.426 81.1489C234.836 82.7052 235.113 84.2229 235.356 85.0225H234.87C234.646 85.0225 234.455 85.2207 234.455 85.5017C234.455 85.7401 234.646 85.9791 234.87 85.9791H235.219V90.4125C234.87 90.4909 234.594 90.8907 234.594 91.3304C234.594 91.6496 234.75 91.8885 234.941 92.0485V95.6424H234.915V95.4881C233.429 83.6162 227.054 73.7718 211.137 66.4091C202.951 62.6202 198.891 57.4714 196.904 53.6912C198.81 52.7324 200.143 50.5471 200.143 48.0005C200.143 44.966 198.252 42.4444 195.753 41.9017L195.665 39.1626C196.355 38.8168 196.838 38.0272 196.838 37.1058C196.838 36.1268 196.29 35.3027 195.53 34.9958L195.318 28.4244C197.737 29.0224 200.316 28.9202 202.826 27.9457C206.598 26.4797 209.468 23.3869 211.077 19.5743C209.734 20.8978 208.16 21.949 206.384 22.6391C198.95 25.5236 190.88 20.9219 188.371 12.3646C187.128 8.1237 187.474 3.71882 189.045 0C184.768 4.21814 182.9 11.1459 184.814 17.6708C186.401 23.0923 190.227 26.9177 194.706 28.2653L194.358 34.9559C193.54 35.2233 192.938 36.0795 192.938 37.1058C192.938 38.0386 193.433 38.8382 194.137 39.1767L193.997 41.8565C191.374 42.2787 189.353 44.8639 189.353 48.0001C189.353 50.6575 190.806 52.9183 192.845 53.8047C190.837 57.5744 186.776 62.6583 178.671 66.4087C163.841 73.2685 157.292 82.2826 155.266 93.0844V92.0481C155.456 91.8885 155.612 91.6491 155.612 91.33C155.612 90.8903 155.336 90.4905 154.988 90.412V85.9786H155.336C155.56 85.9786 155.751 85.7397 155.751 85.5012C155.751 85.2202 155.56 85.0221 155.336 85.0221H154.85C155.093 84.2225 155.37 82.7048 154.78 81.1485C154.502 80.4287 153.948 79.75 153.322 79.1525C152.699 78.5528 152.022 78.0728 151.484 77.7146C151.502 77.6348 151.518 77.474 151.518 77.3543C151.537 77.196 151.518 76.9961 151.451 76.7962C151.364 76.5972 151.206 76.3973 151.033 76.2382C150.86 76.1185 150.687 75.9576 150.565 75.8787L150.548 75.5591C150.582 75.5183 150.618 75.4793 150.635 75.4394C150.652 75.3987 150.687 75.3189 150.687 75.2798C150.687 75.1996 150.652 75.119 150.618 75.0808C150.6 74.9997 150.565 74.9607 150.514 74.9607V74.6411C150.548 74.6411 150.565 74.6012 150.582 74.5609C150.6 74.5219 150.618 74.4802 150.618 74.4022C150.618 74.3619 150.6 74.322 150.582 74.2825C150.548 74.2422 150.531 74.2014 150.496 74.1624L150.479 73.8433L150.392 71.5277C150.392 71.4883 150.373 71.4466 150.34 71.4466C150.323 71.4466 150.305 71.4883 150.305 71.5277L150.202 73.8433V74.1624C150.167 74.2019 150.132 74.2426 150.114 74.2825C150.097 74.3224 150.08 74.3623 150.08 74.4022C150.08 74.4807 150.097 74.5219 150.114 74.5609C150.132 74.6012 150.149 74.6411 150.167 74.6411V74.9607C150.132 74.9607 150.097 75.0002 150.063 75.0808C150.028 75.119 150.011 75.1996 150.011 75.2798C150.011 75.3189 150.028 75.3987 150.063 75.4394C150.063 75.4798 150.097 75.5188 150.132 75.5591V75.8787C149.993 75.958 149.819 76.1185 149.663 76.2382C149.473 76.3973 149.335 76.5972 149.247 76.7962C149.16 76.9961 149.16 77.1561 149.16 77.3543C149.16 77.474 149.194 77.6353 149.23 77.7146C148.658 78.0728 147.982 78.5528 147.357 79.1525C146.733 79.7496 146.178 80.4287 145.901 81.1485C145.311 82.7048 145.604 84.2225 145.831 85.0221H145.431C145.207 85.0221 145.016 85.2202 145.016 85.5012C145.016 85.7397 145.207 85.9786 145.431 85.9786H145.761V90.412C145.415 90.4905 145.136 90.8903 145.136 91.33C145.136 91.6491 145.311 91.888 145.518 92.0481V95.6419H143.802V90.8903H141.426V89.7329H141.633C141.842 89.7329 142.017 89.5322 142.017 89.2924C142.017 89.014 141.842 88.8141 141.633 88.8141H141.426C141.808 87.776 142.813 84.4211 141.513 81.0275C141.01 79.6703 139.987 78.4327 138.824 77.3153C137.68 76.2373 136.431 75.3175 135.409 74.6394C135.46 74.4789 135.494 74.2404 135.512 73.9603C135.529 73.681 135.495 73.3224 135.355 72.9625C135.217 72.6031 134.906 72.2436 134.593 71.9648C134.281 71.6846 133.967 71.4449 133.725 71.2857L133.69 70.6878C133.76 70.6067 133.83 70.5681 133.865 70.4471C133.899 70.3677 133.933 70.2472 133.933 70.1275C133.933 70.007 133.899 69.8877 133.847 69.7689C133.795 69.6887 133.725 69.6098 133.657 69.569L133.639 69.0109C133.691 68.9702 133.725 68.8904 133.76 68.8496C133.796 68.7703 133.813 68.6905 133.813 68.5704C133.813 68.491 133.796 68.3714 133.743 68.2903C133.709 68.2118 133.657 68.1714 133.603 68.132L133.587 67.5332L133.413 63.2212C133.413 63.1813 133.379 63.141 133.327 63.1015C133.275 63.1015 133.24 63.1414 133.24 63.2212L133.067 67.5332L133.048 68.132C132.997 68.1714 132.928 68.2122 132.894 68.2903C132.858 68.3714 132.824 68.491 132.824 68.5704C132.824 68.69 132.858 68.7703 132.894 68.8496C132.928 68.8904 132.963 68.9702 133.015 69.0109L132.997 69.569C132.91 69.6098 132.858 69.6887 132.789 69.7689C132.755 69.8877 132.719 70.007 132.719 70.1275C132.719 70.2467 132.755 70.3677 132.789 70.4471C132.824 70.5676 132.877 70.6067 132.946 70.6878L132.928 71.2857C132.685 71.4449 132.355 71.6846 132.062 71.9648C131.732 72.244 131.437 72.6031 131.299 72.9625C131.16 73.3224 131.126 73.6815 131.126 73.9603C131.16 74.2404 131.194 74.4789 131.245 74.6394C130.223 75.3175 128.957 76.2373 127.829 77.3153C126.666 78.4327 125.643 79.6703 125.124 81.0275C123.841 84.4211 124.829 87.776 125.228 88.8141H125.019C124.811 88.8141 124.62 89.014 124.62 89.2924C124.62 89.5322 124.811 89.7329 125.019 89.7329H125.107V90.8903H122.852V95.6419H121.863L121.845 83.7827H122.384C122.746 83.7827 123.043 83.4237 123.043 83.0248C123.043 82.5868 122.746 82.2668 122.384 82.2668H121.829L121.777 70.8877H121.968C122.279 70.8877 122.556 70.6076 122.556 70.2481C122.556 69.8491 122.279 69.5699 121.968 69.5699H121.759L121.724 60.3467H121.968C122.245 60.3467 122.488 60.0675 122.488 59.7479C122.488 59.4682 122.313 59.2284 122.088 59.1894V57.3517L122.107 57.2723C122.088 57.2324 122.088 57.193 122.088 57.1522V56.3942H122.297C122.453 56.3942 122.556 56.2741 122.556 56.1141C122.556 55.9541 122.453 55.795 122.297 55.795H122.001C122.14 55.3154 122.33 54.3579 121.968 53.4001C121.795 52.9604 121.447 52.5207 121.05 52.1621C120.666 51.7631 120.233 51.483 119.886 51.2437C119.904 51.2038 119.921 51.124 119.921 51.0034C119.921 50.9236 119.921 50.8053 119.886 50.6838C119.816 50.5243 119.73 50.405 119.609 50.3248C119.505 50.2455 119.4 50.1661 119.332 50.1253L119.314 49.886C119.332 49.886 119.365 49.8465 119.365 49.8057C119.384 49.8057 119.4 49.7659 119.4 49.7255C119.4 49.6861 119.384 49.6453 119.365 49.6063C119.348 49.5664 119.332 49.5265 119.296 49.5265V49.327C119.314 49.327 119.332 49.2876 119.332 49.2876C119.348 49.2468 119.365 49.2069 119.365 49.1666C119.365 49.1666 119.348 49.1271 119.332 49.0864C119.332 49.0473 119.296 49.0473 119.279 49.0473V48.8474L119.227 47.3701C119.227 47.3701 119.21 47.3302 119.194 47.3302C119.175 47.3302 119.158 47.3701 119.158 47.3701L119.105 48.8474L119.088 49.0473C119.071 49.0473 119.055 49.0473 119.055 49.0864C119.019 49.1271 119.019 49.1666 119.019 49.1666C119.019 49.2069 119.019 49.2468 119.036 49.2876C119.055 49.2876 119.055 49.327 119.088 49.327V49.5265C119.055 49.5265 119.019 49.5664 119.019 49.6063C118.985 49.6458 118.985 49.6865 118.985 49.7255C118.985 49.7659 118.985 49.8057 119.019 49.8057C119.019 49.8465 119.036 49.886 119.055 49.886V50.1253C118.967 50.1661 118.862 50.2455 118.759 50.3248C118.637 50.4055 118.551 50.5243 118.499 50.6838C118.464 50.8048 118.446 50.9236 118.446 51.0034C118.446 51.1235 118.464 51.2038 118.481 51.2437C118.135 51.483 117.701 51.7631 117.319 52.1621C116.938 52.5207 116.59 52.9604 116.416 53.4001C116.036 54.3579 116.226 55.3154 116.364 55.795H116.122C115.966 55.795 115.862 55.9541 115.862 56.1141C115.862 56.2741 115.966 56.3942 116.122 56.3942H116.331V59.1894C116.106 59.2284 115.932 59.4682 115.932 59.7479C115.932 60.0675 116.174 60.3467 116.451 60.3467H116.694L116.661 69.5699H116.451C116.14 69.5699 115.862 69.8491 115.862 70.2481C115.862 70.6076 116.14 70.8877 116.451 70.8877H116.642L116.59 82.2668H116.036C115.671 82.2668 115.377 82.5868 115.377 83.0248C115.377 83.4237 115.671 83.7827 116.036 83.7827H116.59L116.555 104.346H114.683V103.188H114.874C115.1 103.188 115.273 102.988 115.273 102.748C115.273 102.469 115.1 102.269 114.874 102.269H114.668C115.064 101.231 116.071 97.8773 114.77 94.4833C114.266 93.1252 113.226 91.8876 112.063 90.7706C110.937 89.6909 109.689 88.7742 108.648 88.0947C108.699 87.9351 108.752 87.6949 108.752 87.4569C108.769 87.1364 108.735 86.7778 108.613 86.4188C108.456 86.0593 108.162 85.6998 107.849 85.421C107.537 85.1413 107.226 84.9011 106.983 84.7415L106.947 84.144C107.017 84.0633 107.069 84.0234 107.104 83.9033C107.157 83.8231 107.192 83.7034 107.192 83.5842C107.192 83.4636 107.157 83.3439 107.087 83.2243C107.053 83.1449 106.983 83.0642 106.915 83.0244L106.879 82.4654C106.931 82.4255 106.983 82.3466 107.001 82.3058C107.053 82.2256 107.053 82.1467 107.053 82.0266C107.053 81.9472 107.035 81.8258 106.983 81.7473C106.948 81.6671 106.915 81.6277 106.844 81.5878L106.828 80.9894L106.654 76.677C106.654 76.6367 106.619 76.5967 106.566 76.5564C106.532 76.5564 106.497 76.5972 106.497 76.677L106.324 80.9894L106.289 81.5878C106.237 81.6277 106.186 81.6675 106.151 81.7473C106.115 81.8258 106.081 81.9472 106.081 82.0266C106.081 82.1463 106.097 82.2256 106.151 82.3058C106.168 82.3466 106.221 82.4255 106.254 82.4654L106.237 83.0244C106.151 83.0642 106.098 83.1449 106.046 83.2243C105.995 83.3439 105.959 83.4636 105.959 83.5842C105.959 83.703 105.976 83.8231 106.046 83.9033C106.081 84.023 106.115 84.0633 106.186 84.144L106.168 84.7415C105.924 84.9011 105.595 85.1413 105.302 85.421C104.972 85.7002 104.676 86.0593 104.537 86.4188C104.416 86.7778 104.382 87.1364 104.382 87.4569C104.382 87.6949 104.451 87.9351 104.486 88.0947C103.462 88.7746 102.197 89.6913 101.069 90.7706C99.9062 91.8876 98.8839 93.1252 98.3804 94.4833C97.0798 97.8773 98.0678 101.231 98.4829 102.269H98.259C98.0335 102.269 97.8602 102.469 97.8602 102.748C97.8602 102.988 98.0335 103.188 98.259 103.188H98.345V104.346C96.4899 100.653 90.2179 100.106 88.1163 105.206L88.0885 99.5348H88.2938C88.6278 99.5348 88.9013 99.2126 88.9013 98.8303C88.9013 98.4458 88.6278 98.1293 88.2938 98.1293H88.0786L88.0298 88.3696H88.2942C88.5886 88.3696 88.8335 88.0916 88.8335 87.7488C88.8335 87.4498 88.6518 87.2017 88.4126 87.1386V84.2167H88.6472C88.7954 84.2167 88.9222 84.069 88.9222 83.8902C88.9222 83.7152 88.7954 83.5728 88.6472 83.5728H88.3288C88.4812 83.0489 88.6773 82.045 88.285 81.0231C88.0984 80.5492 87.7366 80.0986 87.3146 79.7027C86.9124 79.3195 86.4615 78.9921 86.0993 78.7549C86.1137 78.6878 86.1286 78.6085 86.1335 78.512C86.1377 78.3937 86.1286 78.2687 86.0795 78.1464C86.0303 78.0101 85.9229 77.886 85.8045 77.7848C85.6975 77.6888 85.5794 77.6099 85.496 77.5537L85.491 77.3332C85.5108 77.3109 85.5307 77.2824 85.5406 77.2539C85.5596 77.2149 85.5699 77.1763 85.5699 77.1364C85.5699 77.0899 85.5596 77.0399 85.5406 77.0062C85.5208 76.972 85.5009 76.9492 85.4716 76.9269L85.4617 76.7353C85.4808 76.7173 85.496 76.6954 85.5063 76.6665C85.5207 76.645 85.5307 76.6103 85.5307 76.577C85.5307 76.5433 85.5207 76.5038 85.5009 76.4762C85.491 76.453 85.4716 76.4306 85.4518 76.4074L85.4423 76.204L85.3836 74.6591C85.3836 74.642 85.3741 74.6258 85.3539 74.6258C85.3337 74.6258 85.3242 74.6367 85.3197 74.6591L85.261 76.204L85.2557 76.4074C85.2317 76.431 85.2123 76.453 85.2016 76.4762C85.1833 76.5038 85.1776 76.5433 85.1776 76.577C85.1776 76.6103 85.1833 76.645 85.1974 76.6665C85.2069 76.6954 85.2267 76.7173 85.2359 76.7353L85.2317 76.9269C85.2069 76.9492 85.1776 76.972 85.1677 77.0062C85.1437 77.0399 85.1334 77.0895 85.1334 77.1364C85.1334 77.1763 85.1433 77.2149 85.1631 77.2539C85.1726 77.2819 85.1974 77.3109 85.2172 77.3332L85.2069 77.5537C85.1189 77.6099 85.0009 77.6892 84.8984 77.7848C84.7804 77.886 84.673 78.0105 84.6288 78.1464C84.5747 78.2687 84.5648 78.3937 84.5701 78.512C84.5701 78.6085 84.5892 78.6874 84.609 78.7549C84.2414 78.9921 83.7909 79.3195 83.3834 79.7027C82.9713 80.0981 82.5996 80.5492 82.4183 81.0231C82.0309 82.045 82.2176 83.0489 82.3741 83.5728H82.1094C81.9525 83.5728 81.8257 83.7148 81.8257 83.8902C81.8257 84.069 81.9525 84.2167 82.1094 84.2167H82.3246V87.1386C82.0892 87.2065 81.9129 87.4551 81.9129 87.7488C81.9129 88.0916 82.1635 88.3696 82.4617 88.3696H82.7161L82.6681 98.1293H82.4617C82.1235 98.1293 81.8439 98.4458 81.8439 98.8303C81.8439 99.2126 82.1231 99.5348 82.4617 99.5348H82.6681L82.6186 108.219C80.1986 102.453 75.2398 98.3726 69.4097 97.8878V97.2065C69.4097 97.0974 69.3723 96.9904 69.3041 96.9119C69.2352 96.8335 69.1453 96.7905 69.0482 96.7905H68.7511L68.5181 89.807C69.8351 89.1749 70.8565 87.819 71.1212 86.0838C71.4347 84.0243 70.5968 82.0419 69.1469 81.0021C69.7665 82.0349 70.0445 83.3391 69.8415 84.6775C69.4317 87.3797 67.1885 89.1885 64.8439 88.7155C64.2814 88.6024 63.7676 88.3691 63.3094 88.0434C63.9462 89.1043 64.9342 89.8802 66.1247 90.1209C66.8628 90.2708 67.5819 90.1718 68.245 89.9114L68.0069 96.7901H67.7167C67.5126 96.7901 67.3446 96.983 67.3446 97.2192V97.8729C61.0574 98.2788 55.7524 102.865 53.4855 109.265C53.1691 108.848 52.7973 108.451 52.4051 108.072C51.6437 107.344 50.8005 106.723 50.097 106.264C50.1317 106.157 50.1675 105.995 50.1675 105.833C50.1786 105.617 50.1557 105.374 50.0734 105.132C49.9676 104.889 49.7684 104.646 49.5578 104.457C49.3468 104.268 49.1361 104.106 48.9716 103.998L48.948 103.594C48.9948 103.54 49.0299 103.513 49.0543 103.432C49.0893 103.379 49.1129 103.296 49.1129 103.216C49.1129 103.135 49.0893 103.054 49.0417 102.972C49.0192 102.919 48.9716 102.865 48.9255 102.838L48.9015 102.46C48.9366 102.433 48.9716 102.379 48.9842 102.352C49.0192 102.298 49.0192 102.244 49.0192 102.163C49.0192 102.109 49.0066 102.027 48.9716 101.975C48.948 101.92 48.9255 101.894 48.8775 101.866L48.8665 101.461L48.7496 98.548C48.7496 98.5213 48.7256 98.4949 48.6898 98.4669C48.6669 98.4669 48.6437 98.4945 48.6437 98.548L48.5264 101.461L48.5024 101.866C48.4677 101.894 48.4335 101.92 48.4095 101.975C48.3855 102.027 48.3622 102.109 48.3622 102.163C48.3622 102.244 48.3737 102.298 48.4095 102.352C48.4213 102.379 48.4571 102.434 48.4795 102.46L48.4677 102.838C48.4095 102.865 48.3737 102.919 48.339 102.972C48.3043 103.054 48.2804 103.135 48.2804 103.216C48.2804 103.297 48.2918 103.379 48.339 103.432C48.3622 103.513 48.3855 103.54 48.4335 103.594L48.4213 103.998C48.2564 104.106 48.0339 104.268 47.8359 104.457C47.6123 104.646 47.4131 104.889 47.3187 105.132C47.2372 105.374 47.214 105.617 47.214 105.833C47.214 105.995 47.2604 106.157 47.2844 106.264C46.5932 106.723 45.7381 107.344 44.9756 108.072C44.1895 108.828 43.4987 109.664 43.1586 110.582C42.9419 111.147 42.8204 111.71 42.7625 112.249C40.4815 111.228 38.5521 109.935 37.0081 108.423C37.0721 108.278 37.1185 108.122 37.1185 107.948C37.1185 107.519 36.8911 107.15 36.5667 106.987L36.3359 102.838H36.0654L35.8335 106.987C35.509 107.15 35.2851 107.519 35.2851 107.948C35.2851 108.122 35.3281 108.278 35.3944 108.423C33.7083 110.065 31.5435 111.478 29.0036 112.529C25.1005 114.137 22.4962 117.016 22.4962 120.305C22.4962 121.247 22.7114 122.159 23.1067 123.012H21.5791V115.439H21.6697C21.9291 115.439 22.1401 115.198 22.1401 114.898V114.592C22.1401 114.296 21.9291 114.053 21.6697 114.053H21.0546C21.0802 113.852 21.0977 113.654 21.0977 113.44C21.0977 111.997 20.4331 110.728 19.4371 110.021C18.8179 109.583 18.29 109.014 17.8741 108.344C17.9533 108.259 17.9998 108.137 17.9998 108.005C17.9998 107.817 17.9027 107.651 17.7591 107.581L17.6562 105.755H17.5382L17.4369 107.581C17.2933 107.651 17.195 107.817 17.195 108.005C17.195 108.138 17.2434 108.259 17.3218 108.344C16.9014 109.011 16.3724 109.584 15.7607 110.021C14.7636 110.727 14.0979 111.997 14.0979 113.44C14.0979 113.654 14.1146 113.852 14.1443 114.053H13.5075C13.2489 114.053 13.0402 114.297 13.0402 114.592V114.898C13.0402 115.199 13.2489 115.439 13.5075 115.439H13.6146V123.381C13.0867 121.28 11.711 119.596 9.9328 118.853C9.93509 118.819 9.94156 118.786 9.94156 118.752C9.94156 117.741 9.3817 116.892 8.60018 116.565L8.31453 115.568C8.37052 115.477 8.40975 115.373 8.40975 115.255C8.40975 115.026 8.28711 114.832 8.11839 114.742L7.94053 111.596C7.94053 111.581 7.92568 111.571 7.91082 111.571C7.90092 111.571 7.88759 111.581 7.88759 111.596L7.70973 114.742C7.54215 114.832 7.42066 115.025 7.42066 115.255C7.42066 115.373 7.45798 115.476 7.51092 115.566L7.22718 116.565C6.4468 116.892 5.88808 117.744 5.88808 118.752C5.88808 118.786 5.89494 118.819 5.89494 118.853C3.61283 119.807 1.97133 122.303 1.97133 125.263C1.97133 125.972 2.08939 126.644 2.26383 127.288H0.210996V128.322H0V167H390V128.322V127.288H387.948V127.288ZM374.798 118.893C374.798 117.825 375.072 116.929 375.446 116.659C375.816 116.928 376.088 117.825 376.088 118.893V123.084H374.798V118.893ZM370.981 118.447C370.981 117.269 371.671 116.278 372.613 115.974C373.551 116.277 374.243 117.269 374.243 118.447V123.084H371.77V123.012H370.981V118.447ZM369.146 118.893C369.146 117.825 369.419 116.929 369.789 116.659C370.163 116.928 370.435 117.825 370.435 118.893V123.012H369.146V118.893H369.146ZM303.906 85.4578C303.686 84.7349 304.721 84.7704 304.838 84.2172C304.96 84.7704 305.995 84.7349 305.769 85.4578C305.739 85.5709 305.705 85.6604 305.784 85.7735C305.857 85.8866 305.847 85.9769 305.847 85.9769V87.1219H303.838V85.9769C303.838 85.9769 303.818 85.8866 303.897 85.7735C303.975 85.6604 303.945 85.5709 303.906 85.4578ZM269.924 58.8575V56.7914C269.924 55.9883 270.394 55.3141 271.036 55.1071C271.674 55.3141 272.146 55.9887 272.146 56.7914V58.9057H269.924L269.924 58.8575ZM241.93 85.3539C241.93 84.2852 242.204 83.39 242.578 83.119C242.948 83.3895 243.22 84.2852 243.22 85.3539V88.6458H241.93V85.3539ZM238.18 88.5708V85.5354C238.18 84.3575 238.871 83.3659 239.813 83.062C240.751 83.3654 241.442 84.3575 241.442 85.5354V88.6414H238.179L238.18 88.5708ZM236.278 85.3539C236.278 84.2852 236.55 83.39 236.921 83.119C237.295 83.3895 237.567 84.2852 237.567 85.3539V88.6558H236.278L236.278 85.3539ZM152.643 85.3539C152.643 84.2852 152.915 83.39 153.289 83.119C153.66 83.3895 153.932 84.2852 153.932 85.3539V88.6558H152.643V85.3539ZM148.767 85.5354C148.767 84.3575 149.459 83.3659 150.397 83.062C151.34 83.3654 152.029 84.3575 152.029 85.5354V88.5708L152.031 88.6414H148.767V85.5354H148.767ZM146.99 85.3539C146.99 84.2852 147.262 83.39 147.632 83.119C148.006 83.3895 148.28 84.2852 148.28 85.3539V88.6458H146.99V85.3539ZM118.065 56.7914C118.065 55.9883 118.536 55.3141 119.175 55.1071C119.816 55.3141 120.286 55.9887 120.286 56.7914V58.8575L120.287 58.9053H118.065V56.7914ZM84.441 85.4578C84.2159 84.7349 85.2503 84.7704 85.3726 84.2172C85.4899 84.7704 86.5239 84.7349 86.3042 85.4578C86.2646 85.5709 86.2349 85.6604 86.3133 85.7735C86.3918 85.8866 86.3727 85.9769 86.3727 85.9769V87.1219H84.3626V85.9769C84.3626 85.9769 84.3527 85.8866 84.4262 85.7735C84.505 85.6604 84.4711 85.5709 84.441 85.4578ZM19.775 118.893C19.775 117.825 20.0465 116.929 20.4209 116.659C20.7919 116.928 21.0642 117.825 21.0642 118.893V123.012H19.775V118.893ZM15.9675 118.447C15.9675 117.269 16.6595 116.278 17.5968 115.974C18.5398 116.277 19.2296 117.269 19.2296 118.447V123.012H18.4401V123.084H15.9671L15.9675 118.447ZM14.1226 118.893C14.1226 117.825 14.3942 116.929 14.764 116.659C15.1384 116.928 15.4122 117.825 15.4122 118.893V123.084H14.1226V118.893Z" fill="#00133F"/>
</svg>
